# xmcd
#
# Track frame offsets:
#	182
#	17507
#	30487
#	44762
#	62645
#	78067
#	91387
#	107760
#
# Disc length: 1660 seconds
#
# Revision: 0
# Processed by: cddbd v1.4PL0 Copyright (c) Steve Scherf et al.
# Submitted via: dBpowerAMP V4.0
#
DISCID=57067a08
DTITLE=Mercury Nashville 1995 - New Music Sampler Vol. 1
DYEAR=1900
DGENRE=Country
TTITLE0=Don't Make Me Feel At Home/Wesley Dennis
TTITLE1=Who's Counting/Wesley Dennis
TTITLE2=Better Things To Do/Terri Clark
TTITLE3=If I Were You/Terri Clark
TTITLE4=Just My Luck/Kim Richy
TTITLE5=Here I Go Again/Kim Richy
TTITLE6=Roll The Dice/Keith Stegall
TTITLE7=Boo Hoo/ Keith Stegall
EXTD=
EXTT0=
EXTT1=
EXTT2=
EXTT3=
EXTT4=
EXTT5=
EXTT6=
EXTT7=
PLAYORDER=
